HIERARCHY
ROOT Hips
{
 OFFSET 0.000000 0.000000 0.000000
 CHANNELS 6 Xposition Yposition Zposition Yrotation Xrotation Zrotation
 JOINT Chest
 {
  OFFSET 0.000000 9.585900 0.002600
  CHANNELS 3 Yrotation Xrotation Zrotation
  JOINT Chest2
  {
   OFFSET 0.000000 9.601200 -0.005300
   CHANNELS 3 Yrotation Xrotation Zrotation
   JOINT Chest3
   {
    OFFSET 0.000000 9.561800 0.000000
    CHANNELS 3 Yrotation Xrotation Zrotation
    JOINT Chest4
    {
     OFFSET 0.000000 9.552100 0.000000
     CHANNELS 3 Yrotation Xrotation Zrotation
     JOINT Neck
     {
      OFFSET 0.000000 14.453000 0.000000
      CHANNELS 3 Yrotation Xrotation Zrotation
      JOINT Head
      {
       OFFSET 0.000000 8.936500 -0.011300
       CHANNELS 3 Yrotation Xrotation Zrotation
       End Site
       {
        OFFSET 0.000000 17.073600 -0.006000
       }
      }
     }
     JOINT RightCollar
     {
      OFFSET -2.921100 9.558500 0.000000
      CHANNELS 3 Yrotation Xrotation Zrotation
      JOINT RightShoulder
      {
       OFFSET -13.519700 0.000000 0.000000
       CHANNELS 3 Yrotation Xrotation Zrotation
       JOINT RightElbow
       {
        OFFSET 0.000000 -29.696600 0.000000
        CHANNELS 3 Yrotation Xrotation Zrotation
        JOINT RightWrist
        {
         OFFSET 0.000000 -24.004700 0.000000
         CHANNELS 3 Yrotation Xrotation Zrotation
         End Site
         {
          OFFSET 0.000000 -17.728500 0.000000
         }
        }
       }
      }
     }
     JOINT LeftCollar
     {
      OFFSET 2.921100 9.558500 0.000000
      CHANNELS 3 Yrotation Xrotation Zrotation
      JOINT LeftShoulder
      {
       OFFSET 13.519700 0.000000 0.000000
       CHANNELS 3 Yrotation Xrotation Zrotation
       JOINT LeftElbow
       {
        OFFSET 0.000000 -29.696600 0.000000
        CHANNELS 3 Yrotation Xrotation Zrotation
        JOINT LeftWrist
        {
         OFFSET 0.000000 -24.004700 0.000000
         CHANNELS 3 Yrotation Xrotation Zrotation
         End Site
         {
          OFFSET 0.000000 -17.728500 0.000000
         }
        }
       }
      }
     }
    }
   }
  }
 }
 JOINT RightHip
 {
  OFFSET -7.771700 -0.012900 -0.001300
  CHANNELS 3 Yrotation Xrotation Zrotation
  JOINT RightKnee
  {
   OFFSET 0.000000 -40.869800 0.001200
   CHANNELS 3 Yrotation Xrotation Zrotation
   JOINT RightAnkle
   {
    OFFSET 0.000000 -39.717900 0.002100
    CHANNELS 3 Yrotation Xrotation Zrotation
    JOINT RightToe
    {
     OFFSET 0.000000 -4.965400 11.033500
     CHANNELS 3 Yrotation Xrotation Zrotation
     End Site
     {
      OFFSET 0.000000 -1.423100 5.872300
     }
    }
   }
  }
 }
 JOINT LeftHip
 {
  OFFSET 7.771700 -0.012900 -0.001300
  CHANNELS 3 Yrotation Xrotation Zrotation
  JOINT LeftKnee
  {
   OFFSET 0.000000 -40.869800 0.001200
   CHANNELS 3 Yrotation Xrotation Zrotation
   JOINT LeftAnkle
   {
    OFFSET 0.000000 -39.717900 0.002100
    CHANNELS 3 Yrotation Xrotation Zrotation
    JOINT LeftToe
    {
     OFFSET 0.000000 -4.965400 11.033500
     CHANNELS 3 Yrotation Xrotation Zrotation
     End Site
     {
      OFFSET 0.000000 -1.423100 5.872300
     }
    }
   }
  }
 }
}
MOTION
Frames: 8
Frame Time: 0.008333
0.000000 85.388000 0.000000 0.000000 -5.767877 0.000000 0.000000 11.653817 0.000000 0.000000 -5.885947 0.000000 0.000000 -0.000000 0.000000 0.000000 -0.000000 0.000000 0.000000 12.528835 0.000000 0.000000 0.711642 0.000000 0.000000 -0.000000 0.000000 0.000000 0.000000 -90.000000 0.000000 -2.309062 0.000000 0.000000 2.309062 0.000000 0.000000 -0.000000 0.000000 0.000000 -0.000000 90.000000 0.000000 -2.309062 0.000000 0.000000 2.309062 0.000000 0.000000 8.520406 0.000000 0.000000 1.905762 0.000000 -0.000000 -4.658285 0.000000 0.000000 -0.000000 0.000000 0.000000 8.520406 0.000000 0.000000 1.905762 0.000000 -0.000000 -4.658285 0.000000 0.000000 -0.000000 0.000000
-14.945861 58.799845 59.093134 -178.770975 -28.290388 -3.006125 2.109722 23.011797 4.558254 0.213030 3.363387 0.511766 0.255431 5.448657 0.724073 1.437801 19.348539 2.939446 0.718067 11.277285 -0.195636 1.463794 -14.846852 -0.687504 4.839791 -3.770236 -0.366834 26.055875 -28.726530 -28.184554 109.013980 -69.547847 -61.761893 24.704997 -2.996141 -52.686161 -8.030791 -4.636330 -2.435177 4.928735 -9.960840 3.874783 -140.460332 -69.317731 109.303056 -5.934327 -5.561870 18.149825 5.004375 -42.535184 -4.878649 -0.592773 68.438814 -2.961519 4.794091 8.208649 8.786242 -0.061291 -6.261846 0.475791 -10.374219 -50.396786 -1.683903 26.847754 62.311584 27.334654 -8.269562 39.744746 4.425034 -0.939648 -10.539961 -7.965546
-14.928307 58.784089 59.092259 -178.905354 -28.275240 -3.068439 2.201053 23.004433 4.581674 0.196994 3.368176 0.486908 0.283143 5.446040 0.739200 1.457196 19.351220 2.922427 0.724448 11.276807 -0.166082 1.463203 -14.848151 -0.633598 4.838528 -3.789046 -0.360031 26.032246 -28.698441 -28.211309 109.186760 -69.614093 -61.958926 24.703324 -2.942313 -52.624833 -7.998336 -4.639026 -2.390484 4.903555 -9.955654 3.846220 -140.456981 -69.061553 109.403318 -5.992761 -5.555209 18.116074 5.002333 -42.562562 -4.707907 -0.604392 68.402694 -2.946625 4.792349 8.227420 8.762031 -0.060490 -6.247107 0.472845 -10.397831 -50.399250 -1.516216 26.880250 62.341863 27.428680 -8.286409 39.685062 4.372468 -0.850909 -11.066464 -7.985747
-14.911897 58.767886 59.090343 -178.988236 -28.263842 -3.147776 2.246135 23.002044 4.596868 0.183107 3.372681 0.462715 0.309642 5.444654 0.753286 1.478737 19.354747 2.904565 0.727000 11.276269 -0.136811 1.455449 -14.849507 -0.578475 4.834348 -3.807609 -0.349551 26.036176 -28.690190 -28.216973 109.133800 -69.615675 -61.964498 24.692710 -2.945357 -52.571554 -8.018966 -4.635146 -2.369189 4.924557 -9.960719 3.842670 -140.462332 -68.807278 109.509312 -6.047470 -5.547717 18.083915 4.952240 -42.579632 -4.531498 -0.617740 68.370982 -2.953520 4.790957 8.239292 8.748545 -0.063016 -6.235118 0.470208 -10.459908 -50.398233 -1.360976 26.931107 62.363260 27.539311 -8.325886 39.629426 4.314590 -0.760143 -11.536159 -8.010518
-14.885230 58.753722 59.086235 -179.071225 -28.269504 -3.285712 2.319416 23.013694 4.676093 0.187275 3.374365 0.459009 0.352623 5.438883 0.792553 1.449323 19.368249 2.841818 0.774177 11.265819 -0.081427 1.402272 -14.841178 -0.541717 4.832545 -3.826807 -0.338863 26.043153 -28.694235 -28.206705 109.203391 -69.642270 -62.059171 24.689796 -2.878050 -52.509329 -8.103634 -4.630990 -2.397642 5.002810 -9.975146 3.893624 -140.476076 -68.562336 109.617920 -6.096989 -5.540547 18.053251 4.841544 -42.574852 -4.269156 -0.646852 68.321358 -2.963327 4.798130 8.269892 8.719042 -0.067098 -6.233536 0.468975 -10.595152 -50.374388 -1.138604 26.980143 62.396166 27.708969 -8.445440 39.552771 4.160311 -0.628239 -11.949222 -8.047868
-14.867353 58.738449 59.085590 -179.138355 -28.253659 -3.373331 2.353674 23.007411 4.692791 0.191111 3.376467 0.455253 0.397344 5.431859 0.831378 1.456645 19.371705 2.831461 0.703385 11.280541 -0.107298 1.409347 -14.848348 -0.481137 4.796249 -3.832347 -0.368559 26.043447 -28.703518 -28.192627 109.202660 -69.642435 -62.102583 24.675434 -2.855247 -52.443473 -8.179800 -4.624687 -2.431602 5.050257 -9.984657 3.904198 -140.499867 -68.329559 109.730396 -6.144553 -5.531344 18.026112 4.770577 -42.591615 -4.103994 -0.637791 68.284250 -2.927662 4.801179 8.284812 8.686245 -0.065631 -6.222066 0.465348 -10.728506 -50.408935 -0.995857 27.150127 62.411867 27.927186 -8.306498 39.617822 4.268033 -0.671401 -12.452178 -8.132020
-14.840212 58.727168 59.081764 -179.177648 -28.263353 -3.523837 2.389373 23.026531 4.767884 0.194519 3.378637 0.451684 0.344144 5.449015 0.756903 1.593469 19.349742 2.928254 0.631527 11.296648 -0.133921 1.415334 -14.856170 -0.425047 4.797072 -3.841963 -0.363987 26.019249 -28.696054 -28.212834 109.204299 -69.643617 -62.147956 24.658994 -2.841394 -52.378248 -8.232221 -4.617806 -2.452543 5.080075 -9.993302 3.898184 -140.532380 -68.104347 109.850918 -6.192711 -5.517044 17.996602 4.608072 -42.568210 -3.831993 -0.654461 68.227503 -2.945114 4.798607 8.294661 8.660768 -0.071622 -6.204451 0.463029 -10.934657 -50.390382 -0.754776 27.206677 62.434935 28.040031 -8.238137 39.669667 4.286574 -0.665482 -12.905257 -8.190347
-14.817261 58.716288 59.080075 -179.211033 -28.262643 -3.645417 2.408120 23.036369 4.810268 0.197488 3.380821 0.448380 0.332267 5.457176 0.730572 1.571055 19.370633 2.853930 0.696345 11.278557 -0.055800 1.398344 -14.857010 -0.383639 4.886181 -3.886525 -0.270756 26.006664 -28.696829 -28.220795 109.199232 -69.644452 -62.180420 24.647401 -2.812068 -52.316553 -8.197278 -4.623491 -2.379030 5.111213 -10.003603 3.887588 -140.560171 -67.879105 109.968654 -6.241468 -5.502070 17.962047 4.500340 -42.553733 -3.629964 -0.677427 68.176679 -2.946109 4.792248 8.299210 8.634476 -0.069962 -6.183764 0.460679 -11.124495 -50.389001 -0.555922 27.245209 62.463837 28.147869 -8.272923 39.710329 4.261222 -0.573780 -13.314775 -8.294143
